<?xml version="1.0" encoding="utf-8"?>
<!-- Generator: Adobe Illustrator 19.1.0, SVG Export Plug-In . SVG Version: 6.00 Build 0)  -->
<svg version="1.1" id="Layer_1" xmlns="http://www.w3.org/2000/svg" xmlns:xlink="http://www.w3.org/1999/xlink" x="0px" y="0px"
	 viewBox="-405 349 468.1 104" style="enable-background:new -405 349 468.1 104;" xml:space="preserve">
<style type="text/css">
	.st0{fill:#FFFFFF;}
</style>
<g>
	<path class="st0" d="M-330.1,399.6c0.3-0.3,0.5-0.6,0.8-0.8c0.9-1,1.9-2,2.8-3c3.8-3.9,5.9-9,5.9-14.4c0-0.4,0.1-1.9,0.1-2.1
		c-0.5-12.4-10.9-22.4-23.2-22.4h-38.9v15.5h-15.7v70h55.2c12.3,0,22.6-10.8,22.6-23.6C-320.5,409.8-326.2,403.3-330.1,399.6z
		 M-374.8,380.3h31l-19.5,19.5l19.2,19.3h-30.7V380.3z M-343.1,434.6h-47.4v-54.4h7.8v46.7h38.6c3.2,0,6-1.9,7.2-4.8
		c1.2-2.9,0.6-6.3-1.7-8.5l-13.7-13.8l14-14c2.2-2.2,2.9-5.6,1.7-8.5c-1.2-2.9-4.1-4.8-7.2-4.8h-31v-7.7h31.1
		c8.2,0,15.1,6.6,15.4,14.7c0,0.4-0.1,1.7-0.1,1.7v0.2c0,4.5-2.3,7.6-3.7,9.1c-1,1-2,2-2.9,3c-1.5,1.6-2.8,3-3.4,3.6l-2.8,2.8
		l2.8,2.8c0.4,0.4,0.9,0.8,1.4,1.3c3.2,3,8.7,8,8.7,15C-328.3,427.3-335.2,434.6-343.1,434.6z"/>
	<g>
		<path class="st0" d="M-294.5,381.6c1.2-0.3,2.5-0.5,4.1-0.8c1.6-0.2,3.2-0.3,4.9-0.3c1.6,0,3.1,0.1,4.6,0.4c1.5,0.3,2.8,0.7,4,1.4
			c1.2,0.7,2.1,1.5,2.8,2.6c0.7,1.1,1.1,2.5,1.1,4.2c0,1.2-0.2,2.4-0.7,3.4c-0.4,1.1-1,2-1.7,2.8c-0.7,0.8-1.5,1.5-2.5,2.1
			c-0.9,0.6-1.9,1.1-2.9,1.4c0.8,0.2,1.6,0.6,2.3,1c0.7,0.5,1.2,1,1.7,1.7c0.5,0.6,0.8,1.3,1.1,2.1c0.3,0.8,0.4,1.6,0.4,2.4
			c0,2.6-0.5,4.7-1.6,6.4c-1,1.7-2.4,3-4.1,4c-1.7,1-3.6,1.7-5.8,2c-2.2,0.4-4.4,0.6-6.8,0.6c-1.7,0-3.4-0.1-5-0.3
			c-1.6-0.2-3.1-0.4-4.5-0.7L-294.5,381.6z M-299,415.3c0.8,0.1,1.6,0.2,2.5,0.3s1.9,0.1,2.9,0.1c1.8,0,3.5-0.1,5.2-0.4
			c1.7-0.3,3.2-0.7,4.6-1.4c1.3-0.7,2.4-1.7,3.2-2.9c0.8-1.2,1.2-2.8,1.2-4.8c0-2.1-0.7-3.6-2.2-4.4c-1.4-0.8-3.8-1.2-7.1-1.2h-6.9
			L-299,415.3z M-289.6,397.3c4.6,0,7.8-0.7,9.8-2.1c2-1.4,3-3.2,3-5.6c0-2.2-0.8-3.7-2.3-4.6s-3.9-1.4-7-1.4c-1,0-1.9,0-2.8,0.1
			c-0.9,0.1-1.7,0.2-2.4,0.3l-3.3,13.2L-289.6,397.3L-289.6,397.3z"/>
		<path class="st0" d="M-264,390.4h3.5l-6.8,28.1h-3.5L-264,390.4z M-262.6,382.2c0-0.9,0.3-1.7,0.8-2.1c0.5-0.5,1.1-0.7,1.7-0.7
			c0.7,0,1.3,0.2,1.7,0.7c0.4,0.5,0.6,1,0.6,1.8c0,0.9-0.3,1.5-0.9,2c-0.6,0.5-1.2,0.7-1.7,0.7c-0.7,0-1.3-0.2-1.6-0.6
			C-262.4,383.4-262.6,382.9-262.6,382.2z"/>
		<path class="st0" d="M-250.8,382.2l3.7-0.7l-2.1,8.9h9.9l-0.7,3h-10l-3.3,13.7c-0.2,0.7-0.3,1.3-0.5,2.1c-0.1,0.7-0.2,1.5-0.2,2.2
			c0,1.6,0.4,2.8,1.2,3.4c0.8,0.7,1.8,1,3,1s2.2-0.1,3-0.4c0.9-0.3,1.8-0.6,2.7-1l0.3,3.2c-1,0.4-2.1,0.7-3.3,1
			c-1.2,0.3-2.4,0.4-3.6,0.4c-0.9,0-1.8-0.1-2.7-0.3c-0.8-0.2-1.6-0.6-2.2-1.1s-1.1-1.2-1.5-2c-0.4-0.8-0.6-1.9-0.6-3.1
			c0-1.6,0.3-3.3,0.8-5.4L-250.8,382.2z"/>
		<path class="st0" d="M-227.5,418.9c-1.8,0-3.8-0.1-5.8-0.2c-2-0.2-3.9-0.4-5.5-0.8l8.7-36.4c1.6-0.4,3.3-0.6,5.2-0.8
			c1.8-0.1,3.6-0.2,5.5-0.2c1.5,0,3.1,0.1,4.6,0.3c1.6,0.2,3,0.6,4.3,1.3c1.3,0.6,2.3,1.5,3.1,2.6c0.8,1.1,1.2,2.5,1.2,4.3
			c0,1.9-0.5,3.7-1.6,5.4c-1.1,1.7-2.9,3.1-5.4,4.1c1.6,0.7,2.8,1.6,3.7,2.8c0.9,1.2,1.3,2.7,1.3,4.3c0,4.2-1.7,7.5-5,9.8
			S-221.2,418.9-227.5,418.9z M-228.1,401.5l-2.8,11.5c0.5,0.1,1.2,0.1,2,0.2c0.8,0.1,1.8,0.1,2.8,0.1c1.2,0,2.4-0.1,3.7-0.3
			s2.5-0.5,3.5-1c1.1-0.5,1.9-1.2,2.6-2.2c0.7-0.9,1.1-2.2,1.1-3.6c0-1.4-0.5-2.5-1.6-3.4c-1-0.9-2.8-1.3-5.2-1.3
			C-222,401.5-228.1,401.5-228.1,401.5z M-226.8,396.2h5.2c1.1,0,2.2-0.1,3.3-0.3c1-0.2,2-0.6,2.7-1.1c0.8-0.5,1.4-1.1,1.9-1.8
			s0.7-1.6,0.7-2.7c0-1.7-0.6-2.8-1.9-3.4c-1.2-0.6-2.9-0.9-5-0.9c-0.8,0-1.7,0-2.5,0.1s-1.5,0.1-2,0.2L-226.8,396.2z"/>
		<path class="st0" d="M-180,407.4c-0.1,0.4-0.2,1.1-0.3,2s-0.2,1.8-0.2,2.6c0,1.1,0.1,2.1,0.3,3.1s0.5,2,0.9,3l-5.9,0.9
			c-0.4-0.9-0.8-1.8-1-2.8c-0.9,0.8-2,1.5-3.3,2.1c-1.3,0.6-2.8,1-4.5,1s-3.2-0.3-4.4-0.8c-1.2-0.6-2.2-1.3-3-2.3s-1.3-2.2-1.7-3.5
			c-0.4-1.3-0.5-2.8-0.5-4.3c0-2.6,0.5-5.1,1.4-7.4c0.9-2.3,2.3-4.3,3.9-5.9c1.7-1.7,3.7-3,6-3.9c2.3-1,4.8-1.4,7.6-1.4
			c1.4,0,2.8,0.1,4.3,0.4c1.4,0.2,2.9,0.7,4.3,1.3L-180,407.4z M-183.6,395.2c-0.7-0.1-1.5-0.2-2.3-0.2c-1.6,0-3.1,0.4-4.5,1.1
			c-1.4,0.7-2.6,1.6-3.6,2.8c-1,1.2-1.8,2.5-2.3,4s-0.8,3.1-0.8,4.8c0,0.8,0.1,1.6,0.2,2.3c0.1,0.7,0.4,1.4,0.7,1.9s0.8,1,1.4,1.3
			c0.6,0.3,1.3,0.5,2.2,0.5c1.2,0,2.2-0.2,3.1-0.7c0.9-0.5,1.7-1.1,2.5-2c0-0.9,0.1-1.8,0.2-2.7c0.1-0.8,0.3-1.7,0.5-2.5
			L-183.6,395.2z"/>
		<path class="st0" d="M-146.8,390.1c-0.7,2.1-1.5,4.2-2.4,6.4s-1.8,4.5-2.9,6.7c-1.1,2.2-2.2,4.5-3.5,6.7c-1.2,2.2-2.6,4.4-4,6.5
			c-1.1,1.6-2.1,3.1-3.3,4.6c-1.1,1.5-2.3,2.8-3.7,3.9c-1.3,1.1-2.8,2-4.4,2.7c-1.6,0.7-3.4,1-5.4,1c-1.1,0-2.1-0.1-3-0.4
			c-0.9-0.3-1.6-0.5-2.3-0.9l2.1-5.3c0.5,0.3,1.1,0.5,1.7,0.7c0.6,0.2,1.3,0.3,2.1,0.3c1.7,0,3.2-0.4,4.5-1.3s2.5-2.1,3.5-3.6
			c-1.2-4-2.1-8.4-2.9-13.1c-0.8-4.7-1.3-9.7-1.6-15h6.6c0,1.5,0.1,3.2,0.2,5c0.1,1.8,0.3,3.7,0.5,5.7c0.2,1.9,0.4,3.8,0.7,5.7
			s0.6,3.6,1,5.2c1.1-1.7,2.1-3.6,3-5.5c0.9-1.9,1.8-3.8,2.6-5.7s1.5-3.7,2.1-5.5s1.1-3.4,1.6-4.9h7.2V390.1z"/>
	</g>
</g>
<g>
	<path class="st0" d="M-101.7,413.2l-1-22.9h4l0.2,11.8c0,2.9,0,5-0.1,6.8h0.1c0.7-1.9,1.4-3.9,2.5-6.7l5.1-11.9h4.3l0.2,11.6
		c0,2.9,0,5-0.1,6.9h0.1c0.7-2.2,1.5-4.4,2.4-6.7l4.9-11.8h4.2l-10.3,22.9h-4.3l-0.3-11c-0.1-2.7,0-4.5,0.1-7.1h-0.1
		c-0.8,2.3-1.5,4.5-2.5,7l-5,11.2L-101.7,413.2L-101.7,413.2z"/>
	<path class="st0" d="M-64.5,412.2c-1.6,0.9-3.8,1.3-5.8,1.3c-4.6,0-6.8-2.8-6.8-6.8c0-5,3.7-10.4,9.4-10.4c3.3,0,5.3,1.9,5.3,4.7
		c0,4.2-4.5,5.6-10.8,5.5c-0.1,0.6,0.1,1.7,0.4,2.3c0.6,1.1,1.8,1.7,3.4,1.7c1.9,0,3.4-0.5,4.6-1.1L-64.5,412.2z M-68.3,399.2
		c-2.5,0-4.1,2.2-4.6,4.2c4.1,0.1,6.7-0.5,6.7-2.5C-66.2,399.9-67.1,399.2-68.3,399.2z"/>
	<path class="st0" d="M-52.8,389l-2.1,10h0.1c1.3-1.8,3.3-2.8,5.4-2.8c3.5,0,5,2.9,5,5.8c0,5.2-3.6,11.5-10.7,11.5
		c-3.5,0-5.5-1.5-5.5-4.5c0-1,0.1-1.9,0.3-2.9l3.5-17.2h4V389z M-56.3,406.4c-0.1,0.6-0.2,1.2-0.2,2c0,1.4,0.8,2.1,2.2,2.1
		c3.5,0,5.7-4.5,5.7-7.7c0-1.8-0.8-3.4-2.6-3.4c-2,0-4.1,2.1-4.8,5.4L-56.3,406.4z"/>
	<path class="st0" d="M-32.8,413.2l-1.1-22.9h2.9l0.5,13.7c0.1,3,0,4.5,0,6h0.1c0.5-1.5,1.1-3,2.4-5.8l6.3-13.9h3l0.5,13.2
		c0.1,3,0.1,5,0.1,6.5h0.1c0.7-2,1.4-3.8,2.2-5.9l6.2-13.8h3l-10.6,22.9h-3l-0.6-13c-0.1-2.7-0.1-4,0.1-6.6H-21
		c-0.7,2.2-1.4,3.9-2.3,6l-6.4,13.6H-32.8z"/>
	<path class="st0" d="M1.6,413.2c0-1,0.2-2.5,0.4-4.2H1.9c-1.8,3.4-4,4.6-6.4,4.6c-2.9,0-4.7-2.3-4.7-5.4c0-5.7,4.2-11.8,11.4-11.8
		c1.6,0,3.3,0.3,4.4,0.6l-1.7,8.6c-0.5,2.9-0.8,5.8-0.7,7.6H1.6z M3.5,398.8c-0.4-0.1-1-0.2-2-0.2c-4.2,0-7.7,4.5-7.8,9
		c0,1.8,0.6,3.6,2.8,3.6c2.3,0,5.1-3.1,6-7.4L3.5,398.8z"/>
	<path class="st0" d="M8.5,413.2l4.6-24.1h2.8l-4.6,24.1H8.5z"/>
	<path class="st0" d="M16.3,413.2l4.6-24.1h2.8l-4.6,24.1H16.3z"/>
	<path class="st0" d="M35.9,412.2c-1.2,0.7-3.2,1.3-5.4,1.3c-4.4,0-6.3-3-6.3-6.6c0-5,3.7-10.6,9-10.6c3.1,0,4.8,1.9,4.8,4.2
		c0,4.3-4.9,5.5-10.9,5.4c-0.1,0.7,0,2.2,0.3,3.1c0.6,1.5,2,2.2,3.7,2.2c1.9,0,3.4-0.6,4.4-1.2L35.9,412.2z M32.8,398.6
		c-2.7,0-4.7,2.6-5.4,5.2c4.4,0,7.9-0.5,7.9-3.1C35.3,399.3,34.3,398.6,32.8,398.6z"/>
	<path class="st0" d="M46.8,392.3l-0.8,4.4h3.9l-0.4,2.2h-3.9l-1.5,8c-0.2,0.9-0.3,1.8-0.3,2.7c0,1,0.5,1.6,1.6,1.6
		c0.5,0,1,0,1.3-0.1l-0.1,2.2c-0.5,0.2-1.4,0.3-2.2,0.3c-2.5,0-3.5-1.5-3.5-3.2c0-1,0.1-1.9,0.3-3.1l1.6-8.3h-2.4l0.4-2.2h2.3
		l0.7-3.7L46.8,392.3z"/>
</g>
<g>
	<rect x="-125.7" y="358.3" class="st0" width="1" height="84"/>
</g>
</svg>
