<?xml version="1.0" encoding="UTF-8" standalone="no"?>
<svg
   xmlns:dc="http://purl.org/dc/elements/1.1/"
   xmlns:cc="http://creativecommons.org/ns#"
   xmlns:rdf="http://www.w3.org/1999/02/22-rdf-syntax-ns#"
   xmlns:svg="http://www.w3.org/2000/svg"
   xmlns="http://www.w3.org/2000/svg"
   height="104"
   width="288.10001"
   xml:space="preserve"
   viewBox="-71 345 288.1 104"
   y="0px"
   x="0px"
   id="Layer_1"
   version="1.1"><metadata
     id="metadata47"><rdf:RDF><cc:Work
         rdf:about=""><dc:format>image/svg+xml</dc:format><dc:type
           rdf:resource="http://purl.org/dc/dcmitype/StillImage" /><dc:title></dc:title></cc:Work></rdf:RDF></metadata><defs
     id="defs45" /><style
     id="style3"
     type="text/css">
	.st0{fill:#6356AB;}
</style><g
     id="g5"><path
       style="fill:#6356ab"
       id="path7"
       d="m 17.1,396.7 c 0.3,-0.3 0.5,-0.6 0.8,-0.8 0.9,-1 1.9,-2 2.8,-3 3.8,-3.9 5.9,-9 5.9,-14.4 0,-0.4 0.1,-1.9 0.1,-2.1 C 26.2,364 15.8,354 3.5,354 l -38.9,0 0,15.5 -15.7,0 0,70 55.2,0 c 12.3,0 22.6,-10.8 22.6,-23.6 0,-9 -5.7,-15.5 -9.6,-19.2 z m -44.7,-19.3 31,0 -19.5,19.5 19.2,19.3 -30.7,0 0,-38.8 z m 31.7,54.3 -47.4,0 0,-54.4 7.8,0 0,46.7 38.6,0 c 3.2,0 6,-1.9 7.2,-4.8 1.2,-2.9 0.6,-6.3 -1.7,-8.5 l -13.7,-13.8 14,-14 c 2.2,-2.2 2.9,-5.6 1.7,-8.5 -1.2,-2.9 -4.1,-4.8 -7.2,-4.8 l -31,0 0,-7.7 31.1,0 c 8.2,0 15.1,6.6 15.4,14.7 0,0.4 -0.1,1.7 -0.1,1.7 l 0,0.2 c 0,4.5 -2.3,7.6 -3.7,9.1 -1,1 -2,2 -2.9,3 -1.5,1.6 -2.8,3 -3.4,3.6 L 6,397 l 2.8,2.8 c 0.4,0.4 0.9,0.8 1.4,1.3 3.2,3 8.7,8 8.7,15 0,8.3 -6.9,15.6 -14.8,15.6 z"
       class="st0" /><g
       id="g9"><path
         style="fill:#6356ab"
         id="path11"
         d="m 52.7,358.7 c 1.2,-0.3 2.5,-0.5 4.1,-0.8 1.6,-0.2 3.2,-0.3 4.9,-0.3 1.6,0 3.1,0.1 4.6,0.4 1.5,0.3 2.8,0.7 4,1.4 1.2,0.7 2.1,1.5 2.8,2.6 0.7,1.1 1.1,2.5 1.1,4.2 0,1.2 -0.2,2.4 -0.7,3.4 -0.4,1.1 -1,2 -1.7,2.8 -0.7,0.8 -1.5,1.5 -2.5,2.1 -0.9,0.6 -1.9,1.1 -2.9,1.4 0.8,0.2 1.6,0.6 2.3,1 0.7,0.5 1.2,1 1.7,1.7 0.5,0.6 0.8,1.3 1.1,2.1 0.3,0.8 0.4,1.6 0.4,2.4 0,2.6 -0.5,4.7 -1.6,6.4 -1,1.7 -2.4,3 -4.1,4 -1.7,1 -3.6,1.7 -5.8,2 -2.2,0.4 -4.4,0.6 -6.8,0.6 -1.7,0 -3.4,-0.1 -5,-0.3 -1.6,-0.2 -3.1,-0.4 -4.5,-0.7 l 8.6,-36.4 z m -4.5,33.7 c 0.8,0.1 1.6,0.2 2.5,0.3 0.9,0.1 1.9,0.1 2.9,0.1 1.8,0 3.5,-0.1 5.2,-0.4 1.7,-0.3 3.2,-0.7 4.6,-1.4 1.3,-0.7 2.4,-1.7 3.2,-2.9 0.8,-1.2 1.2,-2.8 1.2,-4.8 0,-2.1 -0.7,-3.6 -2.2,-4.4 -1.4,-0.8 -3.8,-1.2 -7.1,-1.2 l -6.9,0 -3.4,14.7 z m 9.4,-18 c 4.6,0 7.8,-0.7 9.8,-2.1 2,-1.4 3,-3.2 3,-5.6 0,-2.2 -0.8,-3.7 -2.3,-4.6 -1.5,-0.9 -3.9,-1.4 -7,-1.4 -1,0 -1.9,0 -2.8,0.1 -0.9,0.1 -1.7,0.2 -2.4,0.3 l -3.3,13.2 5,0.1 0,0 z"
         class="st0" /><path
         style="fill:#6356ab"
         id="path13"
         d="m 83.2,367.5 3.5,0 -6.8,28.1 -3.5,0 6.8,-28.1 z m 1.4,-8.2 c 0,-0.9 0.3,-1.7 0.8,-2.1 0.5,-0.5 1.1,-0.7 1.7,-0.7 0.7,0 1.3,0.2 1.7,0.7 0.4,0.5 0.6,1 0.6,1.8 0,0.9 -0.3,1.5 -0.9,2 -0.6,0.5 -1.2,0.7 -1.7,0.7 -0.7,0 -1.3,-0.2 -1.6,-0.6 -0.4,-0.6 -0.6,-1.1 -0.6,-1.8 z"
         class="st0" /><path
         style="fill:#6356ab"
         id="path15"
         d="m 96.4,359.3 3.7,-0.7 -2.1,8.9 9.9,0 -0.7,3 -10,0 -3.3,13.7 c -0.2,0.7 -0.3,1.3 -0.5,2.1 -0.1,0.7 -0.2,1.5 -0.2,2.2 0,1.6 0.4,2.8 1.2,3.4 0.8,0.7 1.8,1 3,1 1.2,0 2.2,-0.1 3,-0.4 0.9,-0.3 1.8,-0.6 2.7,-1 l 0.3,3.2 c -1,0.4 -2.1,0.7 -3.3,1 -1.2,0.3 -2.4,0.4 -3.6,0.4 -0.9,0 -1.8,-0.1 -2.7,-0.3 -0.8,-0.2 -1.6,-0.6 -2.2,-1.1 -0.6,-0.5 -1.1,-1.2 -1.5,-2 -0.4,-0.8 -0.6,-1.9 -0.6,-3.1 0,-1.6 0.3,-3.3 0.8,-5.4 l 6.1,-24.9 z"
         class="st0" /><path
         style="fill:#6356ab"
         id="path17"
         d="m 119.7,396 c -1.8,0 -3.8,-0.1 -5.8,-0.2 -2,-0.2 -3.9,-0.4 -5.5,-0.8 l 8.7,-36.4 c 1.6,-0.4 3.3,-0.6 5.2,-0.8 1.8,-0.1 3.6,-0.2 5.5,-0.2 1.5,0 3.1,0.1 4.6,0.3 1.6,0.2 3,0.6 4.3,1.3 1.3,0.6 2.3,1.5 3.1,2.6 0.8,1.1 1.2,2.5 1.2,4.3 0,1.9 -0.5,3.7 -1.6,5.4 -1.1,1.7 -2.9,3.1 -5.4,4.1 1.6,0.7 2.8,1.6 3.7,2.8 0.9,1.2 1.3,2.7 1.3,4.3 0,4.2 -1.7,7.5 -5,9.8 -3.3,2.3 -8,3.5 -14.3,3.5 z m -0.6,-17.4 -2.8,11.5 c 0.5,0.1 1.2,0.1 2,0.2 0.8,0.1 1.8,0.1 2.8,0.1 1.2,0 2.4,-0.1 3.7,-0.3 1.3,-0.2 2.5,-0.5 3.5,-1 1.1,-0.5 1.9,-1.2 2.6,-2.2 0.7,-0.9 1.1,-2.2 1.1,-3.6 0,-1.4 -0.5,-2.5 -1.6,-3.4 -1,-0.9 -2.8,-1.3 -5.2,-1.3 0,0 -6.1,0 -6.1,0 z m 1.3,-5.3 5.2,0 c 1.1,0 2.2,-0.1 3.3,-0.3 1,-0.2 2,-0.6 2.7,-1.1 0.8,-0.5 1.4,-1.1 1.9,-1.8 0.5,-0.7 0.7,-1.6 0.7,-2.7 0,-1.7 -0.6,-2.8 -1.9,-3.4 -1.2,-0.6 -2.9,-0.9 -5,-0.9 -0.8,0 -1.7,0 -2.5,0.1 -0.8,0.1 -1.5,0.1 -2,0.2 l -2.4,9.9 z"
         class="st0" /><path
         style="fill:#6356ab"
         id="path19"
         d="m 167.2,384.5 c -0.1,0.4 -0.2,1.1 -0.3,2 -0.1,0.9 -0.2,1.8 -0.2,2.6 0,1.1 0.1,2.1 0.3,3.1 0.2,1 0.5,2 0.9,3 l -5.9,0.9 c -0.4,-0.9 -0.8,-1.8 -1,-2.8 -0.9,0.8 -2,1.5 -3.3,2.1 -1.3,0.6 -2.8,1 -4.5,1 -1.7,0 -3.2,-0.3 -4.4,-0.8 -1.2,-0.6 -2.2,-1.3 -3,-2.3 -0.8,-1 -1.3,-2.2 -1.7,-3.5 -0.4,-1.3 -0.5,-2.8 -0.5,-4.3 0,-2.6 0.5,-5.1 1.4,-7.4 0.9,-2.3 2.3,-4.3 3.9,-5.9 1.7,-1.7 3.7,-3 6,-3.9 2.3,-1 4.8,-1.4 7.6,-1.4 1.4,0 2.8,0.1 4.3,0.4 1.4,0.2 2.9,0.7 4.3,1.3 l -3.9,15.9 z m -3.6,-12.2 c -0.7,-0.1 -1.5,-0.2 -2.3,-0.2 -1.6,0 -3.1,0.4 -4.5,1.1 -1.4,0.7 -2.6,1.6 -3.6,2.8 -1,1.2 -1.8,2.5 -2.3,4 -0.5,1.5 -0.8,3.1 -0.8,4.8 0,0.8 0.1,1.6 0.2,2.3 0.1,0.7 0.4,1.4 0.7,1.9 0.3,0.5 0.8,1 1.4,1.3 0.6,0.3 1.3,0.5 2.2,0.5 1.2,0 2.2,-0.2 3.1,-0.7 0.9,-0.5 1.7,-1.1 2.5,-2 0,-0.9 0.1,-1.8 0.2,-2.7 0.1,-0.8 0.3,-1.7 0.5,-2.5 l 2.7,-10.6 z"
         class="st0" /><path
         style="fill:#6356ab"
         id="path21"
         d="m 200.4,367.2 c -0.7,2.1 -1.5,4.2 -2.4,6.4 -0.9,2.2 -1.8,4.5 -2.9,6.7 -1.1,2.2 -2.2,4.5 -3.5,6.7 -1.2,2.2 -2.6,4.4 -4,6.5 -1.1,1.6 -2.1,3.1 -3.3,4.6 -1.1,1.5 -2.3,2.8 -3.7,3.9 -1.3,1.1 -2.8,2 -4.4,2.7 -1.6,0.7 -3.4,1 -5.4,1 -1.1,0 -2.1,-0.1 -3,-0.4 -0.9,-0.3 -1.6,-0.5 -2.3,-0.9 l 2.1,-5.3 c 0.5,0.3 1.1,0.5 1.7,0.7 0.6,0.2 1.3,0.3 2.1,0.3 1.7,0 3.2,-0.4 4.5,-1.3 1.3,-0.9 2.5,-2.1 3.5,-3.6 -1.2,-4 -2.1,-8.4 -2.9,-13.1 -0.8,-4.7 -1.3,-9.7 -1.6,-15 l 6.6,0 c 0,1.5 0.1,3.2 0.2,5 0.1,1.8 0.3,3.7 0.5,5.7 0.2,1.9 0.4,3.8 0.7,5.7 0.3,1.9 0.6,3.6 1,5.2 1.1,-1.7 2.1,-3.6 3,-5.5 0.9,-1.9 1.8,-3.8 2.6,-5.7 0.8,-1.9 1.5,-3.7 2.1,-5.5 0.6,-1.8 1.1,-3.4 1.6,-4.9 l 7.2,0.1 0,0 0,0 z"
         class="st0" /></g></g><g
     id="g23"><path
       style="fill:#6356ab"
       id="path25"
       d="m 49.6,431.7 -0.9,-21.2 3.7,0 0.2,10.9 c 0,2.7 0,4.6 -0.1,6.3 l 0.1,0 c 0.6,-1.8 1.3,-3.6 2.3,-6.2 l 4.7,-11 4,0 0.2,10.8 c 0,2.7 0,4.6 -0.1,6.4 l 0.1,0 c 0.6,-2 1.4,-4.1 2.2,-6.2 l 4.5,-10.9 3.9,0 -9.6,21.2 -4,0 -0.3,-10.2 c -0.1,-2.5 0,-4.2 0.1,-6.6 l -0.1,0 c -0.7,2.1 -1.4,4.2 -2.3,6.5 l -4.6,10.4 -4,-0.2 0,0 z"
       class="st0" /><path
       style="fill:#6356ab"
       id="path27"
       d="m 84.1,430.8 c -1.5,0.8 -3.5,1.2 -5.4,1.2 -4.3,0 -6.3,-2.6 -6.3,-6.3 0,-4.6 3.4,-9.7 8.7,-9.7 3.1,0 4.9,1.8 4.9,4.4 0,3.9 -4.2,5.2 -10,5.1 -0.1,0.6 0.1,1.6 0.4,2.1 0.6,1 1.7,1.6 3.2,1.6 1.8,0 3.2,-0.5 4.3,-1 l 0.2,2.6 z m -3.5,-12.1 c -2.3,0 -3.8,2 -4.3,3.9 3.8,0.1 6.2,-0.5 6.2,-2.3 0.1,-0.9 -0.8,-1.6 -1.9,-1.6 z"
       class="st0" /><path
       style="fill:#6356ab"
       id="path29"
       d="m 95,409.3 -1.9,9.3 0.1,0 c 1.2,-1.7 3.1,-2.6 5,-2.6 3.2,0 4.6,2.7 4.6,5.4 0,4.8 -3.3,10.7 -9.9,10.7 -3.2,0 -5.1,-1.4 -5.1,-4.2 0,-0.9 0.1,-1.8 0.3,-2.7 l 3.2,-16 3.7,0.1 0,0 0,0 z m -3.2,16.1 c -0.1,0.6 -0.2,1.1 -0.2,1.9 0,1.3 0.7,1.9 2,1.9 3.2,0 5.3,-4.2 5.3,-7.1 0,-1.7 -0.7,-3.2 -2.4,-3.2 -1.9,0 -3.8,1.9 -4.5,5 l -0.2,1.5 z"
       class="st0" /><path
       style="fill:#6356ab"
       id="path31"
       d="m 113.6,431.7 -1,-21.2 2.7,0 0.5,12.7 c 0.1,2.8 0,4.2 0,5.6 l 0.1,0 c 0.5,-1.4 1,-2.8 2.2,-5.4 l 5.8,-12.9 2.8,0 0.5,12.2 c 0.1,2.8 0.1,4.6 0.1,6 l 0.1,0 c 0.6,-1.9 1.3,-3.5 2,-5.5 l 5.8,-12.8 2.8,0 -9.8,21.2 -2.8,0 -0.6,-12.1 c -0.1,-2.5 -0.1,-3.7 0.1,-6.1 l -0.3,0 c -0.6,2 -1.3,3.6 -2.1,5.6 l -5.9,12.6 -3,0.1 0,0 z"
       class="st0" /><path
       style="fill:#6356ab"
       id="path33"
       d="m 145.5,431.7 c 0,-0.9 0.2,-2.3 0.4,-3.9 l -0.1,0 c -1.7,3.2 -3.7,4.3 -5.9,4.3 -2.7,0 -4.4,-2.1 -4.4,-5 0,-5.3 3.9,-10.9 10.6,-10.9 1.5,0 3.1,0.3 4.1,0.6 l -1.6,8 c -0.5,2.7 -0.7,5.4 -0.6,7.1 l -2.5,-0.2 0,0 z m 1.7,-13.3 c -0.4,-0.1 -0.9,-0.2 -1.9,-0.2 -3.9,0 -7.1,4.2 -7.2,8.4 0,1.7 0.6,3.3 2.6,3.3 2.1,0 4.7,-2.9 5.6,-6.9 l 0.9,-4.6 z"
       class="st0" /><path
       style="fill:#6356ab"
       id="path35"
       d="m 151.9,431.7 4.3,-22.4 2.6,0 -4.3,22.4 -2.6,0 z"
       class="st0" /><path
       style="fill:#6356ab"
       id="path37"
       d="m 159.1,431.7 4.3,-22.4 2.6,0 -4.3,22.4 -2.6,0 z"
       class="st0" /><path
       style="fill:#6356ab"
       id="path39"
       d="m 177.3,430.8 c -1.1,0.6 -3,1.2 -5,1.2 -4.1,0 -5.8,-2.8 -5.8,-6.1 0,-4.6 3.4,-9.8 8.4,-9.8 2.9,0 4.5,1.8 4.5,3.9 0,4 -4.5,5.1 -10.1,5 -0.1,0.6 0,2 0.3,2.9 0.6,1.4 1.9,2 3.4,2 1.8,0 3.2,-0.6 4.1,-1.1 l 0.2,2 z m -2.9,-12.6 c -2.5,0 -4.4,2.4 -5,4.8 4.1,0 7.3,-0.5 7.3,-2.9 0.1,-1.3 -0.9,-1.9 -2.3,-1.9 z"
       class="st0" /><path
       style="fill:#6356ab"
       id="path41"
       d="m 187.4,412.3 -0.7,4.1 3.6,0 -0.4,2 -3.6,0 -1.4,7.4 c -0.2,0.8 -0.3,1.7 -0.3,2.5 0,0.9 0.5,1.5 1.5,1.5 0.5,0 0.9,0 1.2,-0.1 l -0.1,2 c -0.5,0.2 -1.3,0.3 -2,0.3 -2.3,0 -3.2,-1.4 -3.2,-3 0,-0.9 0.1,-1.8 0.3,-2.9 l 1.5,-7.7 -2.2,0 0.4,-2 2.1,0 0.6,-3.4 2.7,-0.7 z"
       class="st0" /></g></svg>